# xmcd
#
# Track frame offsets:
#	200
#	9482
#	22235
#	34577
#	45140
#	59662
#	72070
#	83682
#	94527
#	104632
#	115490
#	125737
#	140687
#
# Disc length: 2021 seconds
# Revision: 2
# Processed by: cddbd v1.5.2PL0 Copyright (c) Steve Scherf et al.
# Submitted via: dBpowerAMP V12.0
#
DISCID=b007e30d
DTITLE=Lost and Found - January Rain
DYEAR=1992
DGENRE=Couintry
TTITLE0=Love Bug
TTITLE1=Sweethearts in Heaven
TTITLE2=Sawmill Road
TTITLE3=You Can't Make a Heel Tow the Mark
TTITLE4=Farmer's Daughter
TTITLE5=Happy Tracks
TTITLE6=Your Heart Turned Left
TTITLE7=Hey Porter
TTITLE8=A Slow Burning Fire
TTITLE9=I Always Get Lonesome When It Rains
TTITLE10=In Too Deep
TTITLE11=January Rain
TTITLE12=Where Does the Good Times Go
EXTD=
EXTT0=
EXTT1=
EXTT2=
EXTT3=
EXTT4=
EXTT5=
EXTT6=
EXTT7=
EXTT8=
EXTT9=
EXTT10=
EXTT11=
EXTT12=
PLAYORDER=
